<svg xmlns="http://www.w3.org/2000/svg" viewBox="0 0 52 52" x="0px" y="0px"><title>delete</title><path fill="#E7040F" d="M112,646a26,26,0,1,0,26,26A26,26,0,0,0,112,646Zm12.6,35.35-3.25,3.25a0.65,0.65,0,0,1-.91,0l-8.5-8.5-8.44,8.44a0.65,0.65,0,0,1-.91,0l-3.12-3.12a0.65,0.65,0,0,1,0-.91l8.44-8.44-8.5-8.5a0.65,0.65,0,0,1,0-.91l3.25-3.25a0.65,0.65,0,0,1,.91,0l8.5,8.5,8.44-8.44a0.65,0.65,0,0,1,.91,0l3.12,3.12a0.65,0.65,0,0,1,0,.91l-8.44,8.44,8.5,8.5A0.65,0.65,0,0,1,124.6,681.35Z" transform="translate(-86 -646)"></path></svg>